<svg width="21" height="21" viewBox="0 0 21 21" fill="none" xmlns="http://www.w3.org/2000/svg">
<g clip-path="url(#clip0_601_199)">
<path d="M21 10.5386C21 4.71833 16.2989 0 10.5 0C4.70106 0 0 4.71833 0 10.5386C0 15.4807 3.39024 19.6279 7.96362 20.7669V13.7592H5.7981V10.5386H7.96362V9.15085C7.96362 5.56394 9.58062 3.90138 13.0876 3.90138C13.7529 3.90138 14.9008 4.03206 15.3703 4.16316V7.08192C15.1225 7.05578 14.692 7.04272 14.1574 7.04272C12.4354 7.04272 11.7705 7.69737 11.7705 9.39914V10.5373H15.204L14.616 13.7579H11.7722V21C16.9709 20.3698 21 15.9267 21 10.5386Z" fill="black"/>
</g>
<defs>
<clipPath id="clip0_601_199">
<rect width="21" height="21" fill="white"/>
</clipPath>
</defs>
</svg>
