<svg width="20" height="20" viewBox="0 0 20 20" fill="none" xmlns="http://www.w3.org/2000/svg">
<g clip-path="url(#clip0_601_201)">
<path d="M19.9988 9.98074C19.9936 7.26534 19.9814 6.92514 19.9308 5.85874C19.8802 4.79234 19.7108 4.06814 19.4614 3.43234C19.2044 2.77494 18.8614 2.21834 18.305 1.66334C17.7486 1.10834 17.19 0.767338 16.5314 0.513738C15.895 0.267538 15.168 0.0997376 14.1036 0.0537376C13.0392 0.00773761 12.6966 -0.00406239 9.98082 0.00113761C7.26502 0.00633761 6.92502 0.0179376 5.85842 0.0699376C4.79182 0.121938 4.06782 0.289938 3.43262 0.538738C2.77522 0.794938 2.21802 1.13874 1.66362 1.69514C1.10922 2.25154 0.767816 2.80994 0.513416 3.46834C0.267216 4.10494 0.100416 4.83214 0.0534162 5.89674C0.00641622 6.96134 -0.00398379 7.30354 0.00121621 10.0191C0.00641622 12.7347 0.0184162 13.0751 0.0700162 14.1419C0.120816 15.2057 0.290016 15.9321 0.539616 16.5675C0.796216 17.2249 1.13962 17.7819 1.69622 18.3365C2.25282 18.8911 2.81002 19.2317 3.47002 19.4865C4.10602 19.7323 4.83342 19.8999 5.89782 19.9465C6.96222 19.9931 7.30482 20.0039 10.0196 19.9987C12.7344 19.9935 13.0762 19.9815 14.1428 19.9309C15.2094 19.8803 15.932 19.7099 16.5676 19.4615C17.225 19.2043 17.7824 18.8615 18.3366 18.3047C18.8908 17.7479 19.232 17.1899 19.4862 16.5311C19.7326 15.8951 19.9 15.1677 19.9462 14.1041C19.993 13.0367 20.004 12.6959 19.9988 9.98074ZM18.1466 14.0247C18.104 14.9997 17.9424 15.5293 17.8066 15.8825C17.6266 16.3495 17.4096 16.6825 17.0604 17.0337C16.7112 17.3849 16.3786 17.6013 15.9118 17.7837C15.5598 17.9211 15.0304 18.0851 14.0566 18.1315C13.002 18.1811 12.686 18.1915 10.0156 18.1973C7.34522 18.2031 7.03022 18.1923 5.97562 18.1467C5.00062 18.1043 4.47122 17.9423 4.11842 17.8067C3.65122 17.6267 3.31842 17.4091 2.96682 17.0609C2.61522 16.7127 2.39922 16.3787 2.21682 15.9125C2.07982 15.5597 1.91482 15.0309 1.86922 14.0559C1.81962 13.0021 1.80922 12.6857 1.80342 10.0159C1.79762 7.34614 1.80782 7.03014 1.85402 5.97594C1.89562 5.00174 2.05862 4.47174 2.19402 4.11914C2.37402 3.65134 2.59082 3.31914 2.93982 2.96774C3.28882 2.61634 3.62182 2.39994 4.08842 2.21754C4.44082 2.07994 4.96962 1.91634 5.94422 1.86994C6.99882 1.81994 7.31482 1.80994 9.98422 1.80414C12.6536 1.79834 12.9704 1.80834 14.0254 1.85474C14.9996 1.89714 15.5298 2.05854 15.882 2.19474C16.3494 2.37474 16.682 2.59094 17.0334 2.94054C17.3848 3.29014 17.6014 3.62194 17.7838 4.08954C17.9216 4.44094 18.0852 4.96954 18.1312 5.94474C18.1814 6.99934 18.1928 7.31554 18.1976 9.98474C18.2024 12.6539 18.1928 12.9699 18.1466 14.0247Z" fill="black"/>
<path d="M14.1272 4.65464C14.1276 4.89199 14.1984 5.1239 14.3306 5.32103C14.4628 5.51815 14.6505 5.67165 14.8699 5.76209C15.0894 5.85254 15.3307 5.87588 15.5634 5.82916C15.7961 5.78243 16.0098 5.66775 16.1773 5.49961C16.3448 5.33147 16.4587 5.11742 16.5046 4.88454C16.5504 4.65166 16.5262 4.41041 16.435 4.19129C16.3437 3.97218 16.1895 3.78505 15.9919 3.65357C15.7943 3.52209 15.5622 3.45216 15.3248 3.45264C15.0066 3.45328 14.7017 3.58026 14.4771 3.80567C14.2525 4.03107 14.1267 4.33645 14.1272 4.65464Z" fill="black"/>
<path d="M9.99003 4.86524C7.15443 4.87004 4.86003 7.17444 4.86543 10.01C4.87083 12.8456 7.17423 15.1396 10.01 15.1342C12.8458 15.1288 15.1404 12.826 15.135 9.99005C15.1296 7.15404 12.8258 4.85964 9.99003 4.86524ZM10.0062 13.333C9.34707 13.3342 8.70238 13.1399 8.15366 12.7746C7.60495 12.4094 7.17684 11.8897 6.92348 11.2812C6.67012 10.6726 6.60288 10.0027 6.73026 9.35594C6.85765 8.70921 7.17393 8.11478 7.63913 7.64779C8.10432 7.18081 8.69754 6.86224 9.34377 6.73238C9.99001 6.60251 10.6602 6.66718 11.2697 6.9182C11.8792 7.16922 12.4006 7.59533 12.7679 8.14264C13.1352 8.68995 13.332 9.33389 13.3334 9.99304C13.3343 10.4309 13.249 10.8645 13.0822 11.2694C12.9155 11.6742 12.6706 12.0422 12.3616 12.3523C12.0526 12.6625 11.6856 12.9087 11.2814 13.077C10.8772 13.2453 10.4438 13.3323 10.006 13.333H10.0062Z" fill="black"/>
</g>
<defs>
<clipPath id="clip0_601_201">
<rect width="20" height="20" fill="white"/>
</clipPath>
</defs>
</svg>
