<svg width="167" height="56" viewBox="0 0 167 56" fill="none" xmlns="http://www.w3.org/2000/svg">
<g clip-path="url(#clip0_136_72)">
<path d="M0 56V8.08647H8.28589L8.35489 18.1831L9.60841 18.2517C9.92424 16.0783 10.6687 13.9883 11.7992 12.1012C12.7772 10.5021 14.1878 9.20799 15.8703 8.36629C17.6635 7.51318 19.6323 7.08692 21.6204 7.12134C24.587 7.03854 27.5064 7.87264 29.9752 9.50845C32.3645 11.186 34.2138 13.5145 35.2998 16.2129C36.5982 19.4552 37.226 22.924 37.1456 26.4124C37.202 29.7238 36.6345 33.0165 35.4723 36.1207C34.484 38.786 32.7603 41.1213 30.4985 42.8595C28.2905 44.5194 25.54 45.3494 22.2471 45.3494C20.206 45.4126 18.1822 44.9607 16.3648 44.0359C14.7527 43.1496 13.389 41.8776 12.3972 40.3353C11.2656 38.5606 10.387 36.6387 9.78666 34.6245H8.46414C8.74014 35.8695 8.9989 37.1373 9.2289 38.4279C9.45891 39.7185 9.64866 40.9749 9.80391 42.197C9.93966 43.3801 10.0088 44.5698 10.0109 45.7605V56H0ZM18.7971 37.4057C20.3314 37.4499 21.8329 36.9589 23.0406 36.0179C24.2726 34.9964 25.1993 33.6593 25.7202 32.1517C26.3747 30.333 26.6942 28.4121 26.6632 26.4809C26.7141 24.4635 26.3825 22.4545 25.6857 20.5588C25.1316 19.0494 24.1685 17.7214 22.9026 16.7212C21.6629 15.787 20.14 15.2996 18.5843 15.3392C17.2441 15.301 15.9197 15.6352 14.7605 16.3043C13.6874 16.9562 12.7709 17.8333 12.0752 18.8741C11.3633 19.9207 10.8345 21.0792 10.5112 22.3006C10.1986 23.4401 10.0344 24.6147 10.0224 25.7956V27.1091C10.0201 28.027 10.1302 28.9417 10.3502 29.8332C10.6017 30.8033 10.9888 31.7337 11.5002 32.5972C11.9928 33.4793 12.5998 34.2933 13.3057 35.0185C14.0091 35.7294 14.8348 36.3096 15.7438 36.7318C16.6984 37.1792 17.7415 37.4094 18.7971 37.4057Z" fill="black"/>
<path d="M44.4137 44.3841V8.08628H52.6249L52.5559 18.9368H53.9474C54.4298 16.6199 55.3006 14.3998 56.5234 12.3694C57.5461 10.7034 59.0021 9.34215 60.7382 8.42893C62.6084 7.51363 64.6743 7.0629 66.7586 7.11545C70.9753 7.11545 74.1896 8.59074 76.4015 11.5413C78.6134 14.4919 79.7155 19.1233 79.7078 25.4357V44.3841H69.6106V26.5493C69.6106 22.6774 69.0356 19.8543 67.8856 18.0802C67.3744 17.2371 66.6449 16.5455 65.7732 16.0774C64.9014 15.6094 63.9193 15.382 62.929 15.4189C61.2095 15.3664 59.5369 15.9809 58.2657 17.1322C56.9491 18.3911 55.9791 19.964 55.4482 21.7008C54.7927 23.7318 54.4514 25.8499 54.4361 27.9827V44.3841H44.4137Z" fill="black"/>
<path d="M105.255 45.355C102.431 45.4109 99.6208 44.9422 96.9696 43.973C94.7323 43.1347 92.7111 41.8121 91.0528 40.1011C89.4566 38.4066 88.2466 36.3907 87.5049 34.1904C86.6918 31.7721 86.2915 29.2358 86.3204 26.6864C86.289 24.0239 86.7009 21.3746 87.5395 18.8455C88.2978 16.5618 89.5167 14.4555 91.1218 12.655C92.7377 10.8739 94.7363 9.47642 96.9696 8.56609C99.491 7.56276 102.189 7.0696 104.905 7.11555C107.566 7.05665 110.21 7.55072 112.667 8.56609C114.762 9.45395 116.603 10.843 118.026 12.6093C119.427 14.4083 120.393 16.5028 120.85 18.7313L111.586 21.7009C111.488 20.3991 111.095 19.1361 110.436 18.006C109.843 17.0008 108.973 16.1845 107.929 15.6532C106.84 15.1095 105.635 14.8333 104.416 14.848C103.239 14.7972 102.07 15.0549 101.025 15.5952C99.9804 16.1355 99.0974 16.9394 98.4646 17.9261C97.7463 19.0249 97.2286 20.2409 96.9351 21.5182C96.5717 23.07 96.396 24.6593 96.4118 26.2524C96.3563 28.4053 96.6993 30.5501 97.4239 32.58C97.9869 34.1686 99.0315 35.5451 100.414 36.5204C101.873 37.4595 103.587 37.9301 105.324 37.8681C106.882 37.9444 108.429 37.5736 109.781 36.8002C110.853 36.1307 111.709 35.1693 112.248 34.0305C112.78 32.9369 113.128 31.7639 113.277 30.5583L122.046 32.4943C121.829 34.247 121.324 35.9524 120.551 37.5426C119.775 39.1174 118.667 40.508 117.302 41.6201C115.803 42.831 114.091 43.7565 112.253 44.3499C109.992 45.0627 107.628 45.4023 105.255 45.355Z" fill="black"/>
<path d="M141.314 45.218C137.232 45.218 134.226 44.1463 132.298 42.0029C130.37 39.8594 129.412 36.4329 129.423 31.7234V15.9045H124.133L124.271 8.08648H127.957C129.06 8.15732 130.163 7.94491 131.16 7.46971C131.534 7.21279 131.842 6.8723 132.06 6.47558C132.278 6.07886 132.399 5.63697 132.413 5.1854L133.31 0H139.014V8.08648H148.272V16.1787H139.014V31.318C139.014 32.9779 139.409 34.1772 140.199 34.9158C140.989 35.6544 142.196 36.0218 143.821 36.0179C144.676 36.0207 145.529 35.9287 146.363 35.7438C147.122 35.578 147.842 35.2698 148.485 34.8358V44.1101C147.195 44.5387 145.866 44.839 144.517 45.0067C143.455 45.1392 142.385 45.2098 141.314 45.218Z" fill="black"/>
<path d="M161.29 43.2477L159.973 42.7852C159.22 44.1215 158.409 44.704 157.507 44.704C156.751 44.6363 156.038 44.3255 155.477 43.8188C154.392 42.8975 153.848 41.4698 153.844 39.5357C153.84 37.6017 154.384 36.1492 155.477 35.1784C156.569 34.259 158.202 33.7964 160.387 33.7964C162.572 33.7964 164.274 34.259 165.361 35.1784C166.448 36.0978 166.988 37.5541 167 39.5357C166.996 40.1441 166.93 40.7506 166.804 41.3461C166.501 43.2799 166 45.178 165.309 47.0112C164.778 48.3624 164.138 49.6687 163.395 50.9173H155.667L161.29 43.2477Z" fill="black"/>
</g>
<defs>
<clipPath id="clip0_136_72">
<rect width="167" height="56" fill="white"/>
</clipPath>
</defs>
</svg>
